# xmcd
#
# Track frame offsets:
# 150
# 17547
# 32840
# 55919
# 69567
#
# Disc length: 1234 seconds
#
#
# Revision: 0
# Processed by: cddbd v1.5.2PL0 Copyright (c) Steve Scherf et al.
# Submitted via: FreeRIP 2.945 
#
DISCID=3a04d005
DTITLE=Dusk - The Fragile Escape - Butterflies EP
DYEAR=2006
DGENRE=Blues
TTITLE0=The Fragile Escape
TTITLE1=Butterflies
TTITLE2=Slave
TTITLE3=You Don't Know
TTITLE4=One Eye For Freedom
EXTD=www.dusk-music.com
EXTT0=
EXTT1=
EXTT2=
EXTT3=
EXTT4=
PLAYORDER=
